<svg xmlns="http://www.w3.org/2000/svg" width="512" height="512" viewBox="0 0 512 512" role="img" aria-labelledby="title desc">
  <title id="title">Hafa Code app icon</title>
  <desc id="desc">A warm cream app tile with a black code mark and red accent.</desc>
  <defs>
    <linearGradient id="bg" x1="64" y1="48" x2="448" y2="464" gradientUnits="userSpaceOnUse">
      <stop stop-color="#fff7e8"/>
      <stop offset="0.62" stop-color="#f3e4cd"/>
      <stop offset="1" stop-color="#e7d4bb"/>
    </linearGradient>
    <filter id="shadow" x="64" y="68" width="384" height="392" color-interpolation-filters="sRGB" filterUnits="userSpaceOnUse">
      <feDropShadow dx="0" dy="22" stdDeviation="24" flood-color="#38291c" flood-opacity="0.24"/>
    </filter>
  </defs>
  <rect width="512" height="512" rx="112" fill="url(#bg)"/>
  <path d="M86 108h340M86 404h340M108 86v340M404 86v340" stroke="#14110f" stroke-opacity="0.07" stroke-width="2"/>
  <circle cx="130" cy="120" r="96" fill="#f8b84e" fill-opacity="0.34"/>
  <circle cx="420" cy="96" r="120" fill="#136f63" fill-opacity="0.18"/>
  <g filter="url(#shadow)">
    <rect x="130" y="120" width="252" height="252" rx="56" fill="#14110f" transform="rotate(-4 256 246)"/>
    <path d="M217 217l-45 42 45 42M295 217l45 42-45 42M273 196l-34 126" fill="none" stroke="#fffaf1" stroke-width="22" stroke-linecap="round" stroke-linejoin="round"/>
  </g>
  <path d="M360 158c38 29 58 70 54 116" fill="none" stroke="#e9472f" stroke-width="6" stroke-linecap="round" stroke-opacity="0.74"/>
</svg>
