<svg xmlns="http://www.w3.org/2000/svg" width="1200" height="630" viewBox="0 0 1200 630" role="img" aria-labelledby="title desc">
  <title id="title">Hafa Code browser coding playground</title>
  <desc id="desc">Open graph image for Hafa Code, a browser coding playground for Ruby, JavaScript, HTML and CSS.</desc>
  <defs>
    <linearGradient id="bg" x1="0" y1="0" x2="1" y2="1">
      <stop stop-color="#fff7e8"/>
      <stop offset="0.55" stop-color="#f4e8d5"/>
      <stop offset="1" stop-color="#ecddca"/>
    </linearGradient>
    <pattern id="grid" width="38" height="38" patternUnits="userSpaceOnUse">
      <path d="M38 0H0v38" fill="none" stroke="#14110f" stroke-opacity="0.07"/>
    </pattern>
    <filter id="shadow" x="676" y="108" width="388" height="384" color-interpolation-filters="sRGB" filterUnits="userSpaceOnUse">
      <feDropShadow dx="0" dy="26" stdDeviation="28" flood-color="#38291c" flood-opacity="0.25"/>
    </filter>
  </defs>
  <rect width="1200" height="630" fill="url(#bg)"/>
  <rect width="1200" height="630" fill="url(#grid)"/>
  <circle cx="110" cy="90" r="210" fill="#f8b84e" fill-opacity="0.34"/>
  <circle cx="1070" cy="40" r="250" fill="#136f63" fill-opacity="0.18"/>
  <g filter="url(#shadow)">
    <rect x="760" y="155" width="240" height="240" rx="48" fill="#14110f" transform="rotate(-5 880 275)"/>
    <path d="M832 253l-34 34 34 34M928 253l34 34-34 34M895 232l-31 110" fill="none" stroke="#fffaf1" stroke-width="18" stroke-linecap="round" stroke-linejoin="round"/>
  </g>
  <path d="M980 174c38 33 56 74 51 123" fill="none" stroke="#e9472f" stroke-width="6" stroke-linecap="round" stroke-opacity="0.74"/>
  <text x="90" y="218" font-family="Arial, sans-serif" font-size="92" font-weight="800" fill="#14110f">Hafa Code</text>
  <text x="96" y="302" font-family="Arial, sans-serif" font-size="32" font-weight="600" fill="#5b5048">Code in Ruby, JavaScript, HTML and CSS.</text>
  <rect x="96" y="370" width="470" height="68" rx="34" fill="#e9472f"/>
  <text x="132" y="415" font-family="Arial, sans-serif" font-size="26" font-weight="700" fill="#fffaf1">Beginner-first. Open source.</text>
  <text x="96" y="492" font-family="Arial, sans-serif" font-size="24" font-weight="700" fill="#38291c">Built for CSG, FD, and Guam students.</text>
</svg>
